PathFileType	4	(X/Y/Z)	C:\Users\u0145647\OneDrive - KU Leuven\KU Leuven\c3d2osim\CP4\T0\Data\Processed\ViconC3D_CP4_2\CP4_T0_09_gapFilled.trc
DataRate	CameraRate	NumFrames	NumMarkers	Units	OrigDataRate	OrigDataStartFrame	OrigNumFrames
100.000000	100.000000	9	47	mm	100.000000	237	631
Frame#	Time	C7			T10			CLAV			STRN			LSHO			RSHO			RBAK			LASI			RASI			LPSI			RPSI			LLAT			RLAT			LF1			LF2			LF3			LTHI			LKNE			LMEK			RF1			RF2			RF3			RTHI			RKNE			RMEK			LT1			LT2			LT3			LTIB			LANK			LMM			RT1			RT2			RT3			RTIB			RANK			RMM			LHEE			LSTL			LLCA			LTOE			LCM5			RHEE			RSTL			RLCA			RTOE			RCM5
		X1	Y1	Z1	X2	Y2	Z2	X3	Y3	Z3	X4	Y4	Z4	X5	Y5	Z5	X6	Y6	Z6	X7	Y7	Z7	X8	Y8	Z8	X9	Y9	Z9	X10	Y10	Z10	X11	Y11	Z11	X12	Y12	Z12	X13	Y13	Z13	X14	Y14	Z14	X15	Y15	Z15	X16	Y16	Z16	X17	Y17	Z17	X18	Y18	Z18	X19	Y19	Z19	X20	Y20	Z20	X21	Y21	Z21	X22	Y22	Z22	X23	Y23	Z23	X24	Y24	Z24	X25	Y25	Z25	X26	Y26	Z26	X27	Y27	Z27	X28	Y28	Z28	X29	Y29	Z29	X30	Y30	Z30	X31	Y31	Z31	X32	Y32	Z32	X33	Y33	Z33	X34	Y34	Z34	X35	Y35	Z35	X36	Y36	Z36	X37	Y37	Z37	X38	Y38	Z38	X39	Y39	Z39	X40	Y40	Z40	X41	Y41	Z41	X42	Y42	Z42	X43	Y43	Z43	X44	Y44	Z44	X45	Y45	Z45	X46	Y46	Z46	X47	Y47	Z47

237	2.36	-279.58	1419.2	-128.14	-318.9	1164.6	-156.59	-169.27	1333.1	-111.25	-145.32	1182.5	-115.62	-166.07	1383.8	-321.91	-271.98	1361.3	68.31	-341.72	1331.7	-19.919	-124.67	913.56	-213.98	-167.49	910.75	-15.892	-308.79	930.24	-182.28	-326.86	929.57	-110.44	-182.68	974.83	-273.47	-250.25	973.81	15.474	-166.1	638.46	-254.57	-170.94	683.95	-267.91	-196.11	636.79	-270.77	-180.89	558.06	-296.58	-223.1	434.06	-217.76	NaN	NaN	NaN	-130.24	642.38	34.291	-123.26	681.48	37.016	-181.88	655.82	26.853	-100.89	584.68	68.641	-23.722	487.53	-2.8661	NaN	NaN	NaN	-338.58	287.21	-243.5	-286.41	309.49	-222.05	-327.07	331.36	-244.99	-309.09	201.5	-249.15	-450.2	78.379	-213.42	-441.98	88.028	-123.95	-24.583	338.43	15.311	-5.3723	383.36	0.068019	-55.783	380.87	13.702	-0.19494	270.11	57.155	-3.8464	90.613	1.1596	5.5076	109.09	-84.362	-505.36	71.626	-168.82	-449.26	57.351	-127.7	-452.02	50.718	-206.57	-330.48	42.19	-165.87	-343.93	31.04	-214.14	-54.107	78.071	-39.388	7.5431	73.926	-80.736	6.0322	67.004	-2.3703	125.74	80.422	-35.811	106.93	61.712	13.594
238	2.37	-268.04	1416.2	-127.33	-308.05	1161.7	-156.34	-157.85	1329.7	-111.13	-134.15	1179.2	-116.06	-155.61	1381	-321.84	-259.42	1357.7	68.922	-329.88	1328.4	-18.913	-112.28	910.85	-213.84	-154.61	909.04	-15.137	-296.37	926.71	-181.15	-314.44	926.41	-109.41	-171.22	971.64	-273.12	-237.89	971.37	15.993	-155.65	635.53	-253.87	-160.18	681.04	-267.07	-186.01	634.11	-270.13	-170.77	555.79	-295.91	-214.92	431.53	-216.6	NaN	NaN	NaN	-119.49	638.41	33.427	-112.98	676.87	37.585	-170.48	652.32	26.728	-91.286	580.05	67.627	-12.539	484.33	-4.5834	NaN	NaN	NaN	-333.3	287.12	-242.82	-280.59	308.25	-221.54	-320.96	331.01	-244.21	-305.72	200.88	-248.71	-449.04	80.39	-213.63	-440.83	89.603	-124.06	-7.1434	335.29	13.632	9.9619	381.09	-1.8268	-40.934	376.55	12.129	20.253	268.24	55.202	24.927	88.621	-0.74336	32.598	107.55	-86.753	-504.27	74.47	-169.01	-448.57	59.029	-127.91	-451.44	52.823	-206.84	-330.3	42.196	-165.94	-343.56	31.111	-214.13	-25.248	73.965	-41.388	36.328	72.48	-83.172	35.981	65.971	-4.8132	154.6	84.031	-38.781	136.78	64.496	10.655
239	2.38	-256.53	1413.4	-126.33	-296.99	1158.9	-156.04	-146.33	1326.4	-111.03	-122.67	1176.3	-116.5	-145.12	1378.5	-321.81	-246.73	1354.2	69.592	-317.76	1325	-17.691	-99.775	908.15	-213.42	-141.39	907.51	-14.245	-283.76	923.53	-180.16	-301.77	923.62	-108.38	-159.59	968.6	-272.77	-225.26	968.97	16.712	-144.85	632.75	-253.18	-149.15	678.22	-266.21	-175.21	631.54	-269.6	-161.5	552.31	-295.21	-206.24	429.42	-215.76	NaN	NaN	NaN	-108.98	634.38	32.861	-104.08	672.79	38.973	-157.98	653.1	26.696	-81.979	575.63	66.847	-1.3116	481.15	-6.151	NaN	NaN	NaN	-327.64	287.46	-242.32	-274.55	307.15	-220.78	-314.41	330.94	-243.45	-302.04	200.53	-249.08	-447.49	82.718	-214.15	-439.42	91.763	-124.37	9.4213	332.47	11.947	24.681	379.08	-3.148	-25.549	372.2	10.55	39.686	266.17	52.918	50.898	87.137	-3.9872	57.281	106.67	-89.772	-503.03	77.977	-169.54	-447.68	61.195	-128.38	-450.34	54.995	-207.14	-329.61	42.241	-165.91	-343.25	31.092	-213.92	1.0698	70.92	-44.286	62.173	71.876	-86.489	62.5	64.616	-8.3498	180.55	87.153	-42.301	163.61	66.892	7.1942
240	2.39	-244.94	1410.8	-125.39	-285.56	1156.2	-155.56	-134.66	1323.5	-110.91	-110.86	1173.5	-116.63	-134.46	1376.1	-321.73	-233.93	1350.8	70.361	-305.91	1321.9	-16.385	-86.991	905.52	-213.1	-127.9	905.85	-13.449	-270.71	920.6	-179.13	-288.66	921.05	-107.28	-147.51	965.83	-272.37	-212.27	966.88	17.54	-133.71	630.16	-252.37	-137.65	675.61	-265.51	-164.04	629.1	-268.75	-150.84	549.55	-294.31	-196.98	427.48	-215.17	NaN	NaN	NaN	-98.106	630.83	32.807	-93.315	669.03	39.389	-148.52	646.68	26.241	-72.292	571.11	66.106	10.215	478.49	-7.224	NaN	NaN	NaN	-321.21	287.73	-242.16	-267.67	306.6	-220.65	-307.23	331.08	-242.93	-297.76	200.38	-249.44	-445.73	85.501	-214.7	-437.66	94.247	-124.9	25.136	329.91	10.414	38.845	376.75	-4.7009	-10.869	368.61	9.6493	57.513	264.16	50.623	73.463	85.752	-7.9615	79.246	106.26	-93.366	-501.43	82.086	-170.31	-446.61	63.86	-129.01	-449.26	57.897	-207.82	-328.73	42.353	-165.88	-342.77	31.107	-213.94	24.036	68.592	-48.148	85.484	71.341	-90.518	85.685	63.523	-11.794	203.34	89.399	-46.464	186.98	68.319	3.1585
241	2.4	-233.27	1408.3	-124.3	-273.75	1153.7	-155	-122.84	1321	-110.61	-98.813	1170.9	-116.58	-123.75	1373.6	-321.64	-220.94	1347.7	71.303	-293.68	1318.9	-14.928	-73.684	903.04	-212.63	-114.4	904.1	-12.499	-257.41	918.06	-178.01	-275.3	918.94	-106.18	-134.98	963.14	-271.86	-199.07	964.88	18.4	-122.12	627.62	-251.73	-125.86	673.17	-264.9	-152.61	626.96	-268.13	-139.18	547.53	-293.64	-187.15	425.36	-214.5	NaN	NaN	NaN	-86.596	627.77	33.317	-81.566	665.93	39.513	-136.27	645.21	26.478	-61.858	567.28	65.715	22.051	476.14	-7.9135	NaN	NaN	NaN	-314.51	288.13	-242.02	-260.52	305.83	-220.36	-299.42	331.3	-242.67	-293.45	200.69	-249.93	-443.79	88.705	-215.55	-435.22	96.952	-125.5	39.541	327.22	8.6275	52.161	374.78	-5.4591	3.2991	365.21	8.942	73.469	261.66	47.97	92.922	84.114	-12.731	98.442	105.98	-97.297	-499.59	86.439	-171.41	-445.13	66.903	-129.93	-447.61	61.253	-208.4	-327.79	42.406	-165.83	-342.12	31.209	-214	43.665	66.55	-53.16	105.18	71.132	-94.862	105.5	62.277	-17.135	222.68	90.544	-50.467	206.63	68.203	-1.2354
242	2.41	-221.58	1406	-123.22	-261.49	1151.1	-154.25	-110.86	1318.7	-110.27	-86.266	1168.9	-116.31	-112.95	1371.5	-321.42	-207.99	1344.8	72.363	-281.27	1316	-13.44	-60.408	900.55	-212.05	-100.66	902.67	-11.373	-243.72	916	-176.87	-260.9	917.01	-104.98	-122.01	960.8	-271.27	-185.66	963.07	19.349	-110.25	625.4	-251.33	-113.76	670.79	-264.08	-140.88	624.68	-267.36	-128.12	545.54	-293.63	-176.94	423.36	-214.05	NaN	NaN	NaN	-73.344	626.02	33.804	-69.444	664.08	40.591	-124.15	643.87	26.637	-50.415	564.91	65.516	33.955	474.04	-8.6182	NaN	NaN	NaN	-306.9	289.07	-242.17	-252.77	305.48	-220.21	-291.13	331.76	-242.65	-288.13	201.38	-250.56	-440.91	92.188	-216.77	-432.07	100.39	-126.29	52.383	324.62	6.4907	64.527	372.36	-7.0085	15.888	362.58	7.4259	86.658	258.84	45.267	107.87	81.71	-17.478	114.65	105.49	-102.34	-496.94	91.707	-172.32	-443.2	70.486	-131.07	-445.68	64.871	-209.6	-327.44	42.182	-166.37	-341.21	31.343	-214.16	59.664	64.77	-58.799	121.56	70.55	-100.15	120.92	60.394	-22.163	238.65	89.962	-54.391	222.46	66.536	-5.6445
243	2.42	-209.81	1403.8	-122.09	-248.89	1148.9	-153.38	-98.734	1316.8	-109.67	-73.454	1167.2	-115.81	-101.88	1369.6	-321.18	-194.88	1342.3	73.475	-268.72	1313.4	-11.893	-46.027	898.49	-211.16	-86.659	901.4	-10.191	-229.85	914.38	-175.81	-247.48	915.79	-103.83	-107.8	958.74	-270.53	-172.13	961.54	20.288	-98.161	623.07	-250.77	-101.52	668.65	-263.27	-128.8	622.69	-266.88	-115.88	543.57	-293.4	-166.3	421.58	-213.82	NaN	NaN	NaN	-59.442	626.4	33.192	-56.119	663.41	41.435	-110.4	643.02	27.016	-37.098	564.03	65.711	45.932	471.98	-9.1372	NaN	NaN	NaN	-299	290.07	-242.35	-244.5	305.08	-220.4	-282.12	332.29	-242.72	-282.62	202.06	-251.41	-438	96.265	-217.94	-429.61	104.38	-127.65	63.887	322.03	4.0854	76.148	370.11	-8.1489	27.472	359.85	5.1019	97.548	255.67	42.54	120.23	79.587	-22.28	127.47	104.33	-106.71	-494.09	97.305	-173.83	-440.93	74.652	-132.34	-443.34	69.137	-210.72	-326.36	42.343	-166.57	-340.31	31.417	-214.26	72.069	63.008	-64.437	134.47	69.341	-105.16	133.45	58.068	-27.171	251.15	87.879	-58.092	234.53	63.683	-9.7604
244	2.43	-197.93	1401.9	-120.93	-235.81	1146.7	-152.31	-86.406	1315.4	-108.92	-60.381	1165.7	-115.05	-90.682	1367.9	-320.73	-181.73	1340	74.625	-255.96	1311	-10.36	-32.373	896.46	-210.24	-72.466	900.2	-8.9596	-215.64	913.16	-174.79	-233.18	914.75	-102.73	-94.422	956.89	-269.96	-158.31	960.02	21.268	-85.886	620.92	-250.31	-88.814	666.83	-262.68	-116.41	620.78	-266.47	-104.39	541.37	-292.83	-155.04	419.99	-214.3	NaN	NaN	NaN	-48.069	624.25	32.533	-41.774	663.15	41.827	-96.105	642.69	27.468	-22.894	563.98	65.489	57.708	469.75	-10.051	NaN	NaN	NaN	-290.38	291.32	-243.04	-235.54	305.2	-221.11	-272.31	333.18	-243.34	-276.39	203.18	-252.52	-434.11	100.63	-219.44	-425.9	108.61	-129.11	74.041	319.47	1.9441	87.012	367.39	-10.214	37.826	357.69	2.5051	106.48	252.25	39.9	129.09	76.576	-26.989	137.41	102.27	-110.83	-490.43	103.58	-175.3	-438.5	79.394	-133.55	-440.41	73.682	-212	-324.99	42.391	-166.99	-338.88	31.861	-214.57	81.414	60.948	-69.516	143.91	67.242	-109.49	141.7	54.631	-31.55	260.56	84.073	-61.581	243.59	59.321	-13.72
245	2.44	-185.9	1400.3	-119.7	-222.45	1144.7	-151.06	-73.837	1314.2	-108.04	-47.067	1164.9	-114.04	-79.208	1366.4	-320.08	-168.44	1338.1	75.923	-243.03	1308.9	-8.7443	-18.45	894.67	-209.32	-57.837	899.56	-7.7001	-201.09	912.15	-173.72	-217.91	913.71	-101.74	-80.124	955.5	-269.08	-144.18	958.59	22.232	-72.868	619.54	-250.48	-76.02	665.02	-262.35	-103.83	619.12	-266.19	-91.936	538.7	-292.67	-143.4	418.52	-214.76	NaN	NaN	NaN	-32.081	625.32	32.782	-26.03	662.66	40.25	-81.769	642.52	27.937	-8.7625	563.9	64.947	69.221	467.35	-11.022	NaN	NaN	NaN	-281.46	292.92	-243.56	-226.29	305.24	-221.57	-262.35	334.23	-243.78	-269.7	204.47	-253.4	-429.74	105.13	-220.86	-421.59	113.29	-130.52	83.204	316.59	-0.51029	97.053	364.48	-11.966	47.234	355.34	-0.37599	113.92	248.48	37.35	135.54	73.139	-30.681	144.43	99.244	-114.42	-486.07	110.49	-176.75	-434.88	84.489	-135.08	-437.13	78.635	-213.41	-323.39	42.358	-167.71	-337.53	32.138	-215.02	87.924	58.368	-73.608	150.45	64.022	-113.37	148.38	51.399	-35.569	267.33	78.715	-65.39	249.94	53.944	-17.648
